<?xml version="1.0" encoding="iso-8859-1"?><!-- Generator: Adobe Illustrator 21.1.0, SVG Export Plug-In . SVG Version: 6.00 Build 0)  --><svg xmlns="http://www.w3.org/2000/svg" xmlns:xlink="http://www.w3.org/1999/xlink" viewBox="0 0 50 50" width="40px" height="40px" fill="currentcolor"><path d="M44,4H6C4.9,4,4,4.9,4,6v38c0,1.1,0.9,2,2,2h38c1.1,0,2-0.9,2-2V6C46,4.9,45.1,4,44,4z M23.64,24.46c-1.15,1.6-3.17,2.4-5.09,2.4c-0.41,0-0.73,0-1.09-0.03V36H15V14.42c0.99-0.26,2.14-0.42,3.58-0.42c1.99,0,3.68,0.48,4.81,1.57c1.02,1.02,1.56,2.59,1.56,4.48C24.95,22.03,24.47,23.37,23.64,24.46z M30.15,36c-1.16,0-2.45-0.35-3.15-0.9l0.63-1.86c0.57,0.35,1.56,0.8,2.59,0.8c1.43,0,2.36-0.87,2.36-2.25c0-1.19-0.43-2.02-2.06-3.05c-2.09-1.32-3.22-2.67-3.22-4.43c0-2.54,1.92-4.31,4.41-4.31c1.27,0,2.19,0.39,2.86,0.8l-0.67,1.87c-0.63-0.42-1.29-0.71-2.15-0.71c-1.36,0-2.06,0.96-2.06,1.99c0,1.03,0.4,1.64,1.99,2.67c1.86,1.16,3.32,2.6,3.32,4.75C35,34.49,32.81,36,30.15,36z"/><path d="M22.62,19.83c0,3.04-1.63,4.64-4.03,4.64c-0.41,0-0.7-0.03-0.99-0.06V15.8c0.32-0.1,0.8-0.16,1.38-0.16C21.73,15.64,22.62,17.62,22.62,19.83z"/></svg>